<?xml version="1.0" encoding="UTF-8" standalone="no"?>
<!-- Created with Inkscape (http://www.inkscape.org/) -->

<svg
   width="512"
   height="256"
   viewBox="0 0 135.46666 67.733333"
   version="1.1"
   id="svg1"
   inkscape:version="1.3.2 (091e20ef0f, 2023-11-25, custom)"
   sodipodi:docname="Player.svg"
   xmlns:inkscape="http://www.inkscape.org/namespaces/inkscape"
   xmlns:sodipodi="http://sodipodi.sourceforge.net/DTD/sodipodi-0.dtd"
   xmlns="http://www.w3.org/2000/svg"
   xmlns:svg="http://www.w3.org/2000/svg">
  <sodipodi:namedview
     id="namedview1"
     pagecolor="#333333"
     bordercolor="#000000"
     borderopacity="0.25"
     inkscape:showpageshadow="2"
     inkscape:pageopacity="0.0"
     inkscape:pagecheckerboard="0"
     inkscape:deskcolor="#1a1a1a"
     inkscape:document-units="px"
     showgrid="true"
     inkscape:zoom="1.4164562"
     inkscape:cx="254.86139"
     inkscape:cy="92.83732"
     inkscape:window-width="1920"
     inkscape:window-height="999"
     inkscape:window-x="0"
     inkscape:window-y="0"
     inkscape:window-maximized="1"
     inkscape:current-layer="layer1">
    <inkscape:grid
       id="grid1"
       units="px"
       originx="0"
       originy="0"
       spacingx="1.0583333"
       spacingy="1.0583333"
       empcolor="#ffffff"
       empopacity="0.2"
       color="#ffffff"
       opacity="0.05098039"
       empspacing="8"
       dotted="false"
       gridanglex="30"
       gridanglez="30"
       visible="true" />
  </sodipodi:namedview>
  <defs
     id="defs1" />
  <g
     inkscape:label="Layer 1"
     inkscape:groupmode="layer"
     id="layer1">
    <rect
       style="fill:#e5e5e5;stroke-width:0.0254;-inkscape-stroke:none;fill-opacity:1"
       id="rect1"
       width="67.73333"
       height="67.73333"
       x="0"
       y="0"
       inkscape:export-filename="PlayerSquare.png"
       inkscape:export-xdpi="96"
       inkscape:export-ydpi="96" />
    <path
       id="path1"
       style="fill:#808080;fill-opacity:1;stroke-width:0.0254;-inkscape-stroke:none"
       d="M 16.933333 0 L 21.166666 4.2333332 L 46.566665 4.2333332 L 50.799999 0 L 16.933333 0 z M 0 16.933333 L 0 50.799999 L 4.2333332 46.566665 L 4.2333332 21.166666 L 0 16.933333 z M 67.733331 16.933333 L 63.499998 21.166666 L 63.499998 46.566665 L 67.733331 50.799999 L 67.733331 16.933333 z M 21.166666 63.499998 L 16.933333 67.733331 L 50.799999 67.733331 L 46.566665 63.499998 L 21.166666 63.499998 z " />
    <path
       id="rect3"
       style="fill:#808080;fill-opacity:1;stroke-width:0.0254;-inkscape-stroke:none"
       d="M 12.7 12.7 L 12.7 55.033332 L 55.033332 55.033332 L 55.033332 12.7 L 12.7 12.7 z M 16.933333 16.933333 L 50.799999 16.933333 L 50.799999 50.799999 L 16.933333 50.799999 L 16.933333 16.933333 z " />
    <circle
       style="fill:#ffffff;fill-opacity:1;stroke-width:0.0254;-inkscape-stroke:none"
       id="path4"
       cx="101.6"
       cy="33.866665"
       r="33.866665"
       inkscape:export-filename="PlayerCircle.png"
       inkscape:export-xdpi="96"
       inkscape:export-ydpi="96" />
    <path
       id="path12"
       style="fill:#808080;fill-opacity:1;stroke-width:0.0254;-inkscape-stroke:none"
       d="M 101.6 0 A 33.866665 33.866665 0 0 0 84.666664 4.5371906 L 91.045086 6.2461302 A 29.633333 29.633331 0 0 1 101.6 4.2333332 A 29.633333 29.633331 0 0 1 112.22209 6.2285602 L 118.53333 4.5371906 A 33.866665 33.866665 0 0 0 101.6 0 z M 72.270522 16.933333 A 33.866665 33.866665 0 0 0 67.733331 33.866666 A 33.866665 33.866665 0 0 0 72.270522 50.799999 L 73.979462 44.421577 A 29.633331 29.633333 0 0 1 71.966665 33.866666 A 29.633331 29.633333 0 0 1 73.961892 23.244575 L 72.270522 16.933333 z M 130.92947 16.933333 L 129.22053 23.311755 A 29.633331 29.633333 0 0 1 131.23333 33.866666 A 29.633331 29.633333 0 0 1 129.2381 44.488756 L 130.92947 50.799999 A 33.866665 33.866665 0 0 0 135.46666 33.866666 A 33.866665 33.866665 0 0 0 130.92947 16.933333 z M 112.15491 61.487201 A 29.633333 29.633331 0 0 1 101.6 63.499998 A 29.633333 29.633331 0 0 1 90.977907 61.504771 L 84.666664 63.196141 A 33.866665 33.866665 0 0 0 101.6 67.733331 A 33.866665 33.866665 0 0 0 118.53333 63.196141 L 112.15491 61.487201 z " />
    <path
       id="path15"
       style="fill:#808080;fill-opacity:1;stroke:none;stroke-width:0.0254;stroke-dasharray:none;stroke-opacity:1"
       d="M 101.6,12.7 A 21.166666,21.166666 0 0 0 80.433331,33.866666 21.166666,21.166666 0 0 0 101.6,55.033332 21.166666,21.166666 0 0 0 122.76666,33.866666 21.166666,21.166666 0 0 0 101.6,12.7 Z m 0,4.233333 A 16.933332,16.933332 0 0 1 118.53333,33.866666 16.933332,16.933332 0 0 1 101.6,50.799999 16.933332,16.933332 0 0 1 84.666664,33.866666 16.933332,16.933332 0 0 1 101.6,16.933333 Z" />
  </g>
</svg>
