<?xml version="1.0" encoding="UTF-8" standalone="no"?>
<!-- Created with Inkscape (http://www.inkscape.org/) -->

<svg
   width="2048"
   height="2048"
   viewBox="0 0 541.86665 541.86666"
   version="1.1"
   id="svg1"
   inkscape:version="1.3.2 (091e20ef0f, 2023-11-25, custom)"
   sodipodi:docname="Source.svg"
   xmlns:inkscape="http://www.inkscape.org/namespaces/inkscape"
   xmlns:sodipodi="http://sodipodi.sourceforge.net/DTD/sodipodi-0.dtd"
   xmlns:xlink="http://www.w3.org/1999/xlink"
   xmlns="http://www.w3.org/2000/svg"
   xmlns:svg="http://www.w3.org/2000/svg">
  <sodipodi:namedview
     id="namedview1"
     pagecolor="#333333"
     bordercolor="#000000"
     borderopacity="0.25"
     inkscape:showpageshadow="2"
     inkscape:pageopacity="0.0"
     inkscape:pagecheckerboard="0"
     inkscape:deskcolor="#1a1a1a"
     inkscape:document-units="px"
     showgrid="true"
     inkscape:zoom="0.5007929"
     inkscape:cx="1140.1919"
     inkscape:cy="1720.272"
     inkscape:window-width="1920"
     inkscape:window-height="999"
     inkscape:window-x="0"
     inkscape:window-y="0"
     inkscape:window-maximized="1"
     inkscape:current-layer="layer1">
    <inkscape:grid
       id="grid1"
       units="px"
       originx="0"
       originy="0"
       spacingx="2.1166666"
       spacingy="2.1166666"
       empcolor="#ffffff"
       empopacity="0.2"
       color="#ffffff"
       opacity="0.05098039"
       empspacing="8"
       dotted="false"
       gridanglex="30"
       gridanglez="30"
       visible="true" />
  </sodipodi:namedview>
  <defs
     id="defs1">
    <linearGradient
       id="linearGradient13"
       inkscape:collect="always">
      <stop
         style="stop-color:#ffffff;stop-opacity:0;"
         offset="0"
         id="stop13" />
      <stop
         style="stop-color:#ffffff;stop-opacity:0.5;"
         offset="1"
         id="stop14" />
    </linearGradient>
    <linearGradient
       inkscape:collect="always"
       xlink:href="#linearGradient13"
       id="linearGradient14"
       x1="474.13333"
       y1="275.16662"
       x2="533.4"
       y2="275.16662"
       gradientUnits="userSpaceOnUse" />
    <linearGradient
       inkscape:collect="always"
       xlink:href="#linearGradient13"
       id="linearGradient15"
       gradientUnits="userSpaceOnUse"
       x1="474.13333"
       y1="275.16662"
       x2="533.4"
       y2="275.16662"
       gradientTransform="translate(3.1249999e-6,127.00005)" />
  </defs>
  <g
     inkscape:label="Layer 1"
     inkscape:groupmode="layer"
     id="layer1">
    <path
       id="rect1"
       style="fill:#ffffff;fill-opacity:0.5;stroke-width:0.0254"
       d="M 135.46666,270.93333 V 304.8 l 8.46667,-8.46667 V 279.4 h 16.93333 l 8.46667,-8.46667 z m 50.8,8.46667 8.46667,-8.46667 h 16.93333 l 8.46667,8.46667 z m 50.8,-8.46667 8.46666,8.46667 h 16.93334 v 16.93333 l 8.46666,8.46667 v -33.86667 z m -93.13333,50.8 v 33.86666 l -8.46666,-8.46666 v -16.93334 z m 118.53333,0 8.46667,8.46666 v 16.93334 l -8.46667,8.46666 z m -127,50.8 v 33.86666 h 33.86667 l -8.46667,-8.46666 h -16.93333 v -16.93334 z m 135.46666,0 -8.46666,8.46666 v 16.93334 h -16.93334 l -8.46666,8.46666 h 33.86666 z M 194.73333,406.4 l -8.46667,-8.46668 h 33.86667 L 211.66666,406.4 Z"
       sodipodi:nodetypes="cccccccccccccccccccccccccccccccccccccccccccccccc" />
    <use
       x="0"
       y="0"
       xlink:href="#rect1"
       id="use13"
       transform="translate(-135.46666,-270.93333)"
       inkscape:export-filename="ModifierSquareSmall.png"
       inkscape:export-xdpi="96"
       inkscape:export-ydpi="96" />
    <use
       x="0"
       y="0"
       xlink:href="#rect1"
       id="use15"
       transform="translate(-135.46666,-135.46667)"
       inkscape:export-filename="ModifierCircleSmall.png"
       inkscape:export-xdpi="96"
       inkscape:export-ydpi="96" />
    <use
       x="0"
       y="0"
       xlink:href="#rect1"
       id="use17"
       transform="translate(-3.75e-6,-270.93333)"
       inkscape:export-filename="ModifierSquare.png"
       inkscape:export-xdpi="96"
       inkscape:export-ydpi="96" />
    <use
       x="0"
       y="0"
       xlink:href="#rect1"
       id="use19"
       transform="translate(-3.75e-6,-135.46667)"
       inkscape:export-filename="ModifierCircle.png"
       inkscape:export-xdpi="96"
       inkscape:export-ydpi="96" />
    <use
       x="0"
       y="0"
       xlink:href="#rect1"
       id="use21"
       transform="translate(135.46667,-270.93333)"
       inkscape:export-filename="ModifierSquareLarge.png"
       inkscape:export-xdpi="96"
       inkscape:export-ydpi="96" />
    <use
       x="0"
       y="0"
       xlink:href="#rect1"
       id="use23"
       transform="translate(135.46667,-135.46667)"
       inkscape:export-filename="ModifierCircleLarge.png"
       inkscape:export-xdpi="96"
       inkscape:export-ydpi="96" />
    <use
       x="0"
       y="0"
       xlink:href="#rect1"
       id="use25"
       transform="translate(270.93333,-270.93333)"
       inkscape:export-filename="ModifierGravityInvert.png"
       inkscape:export-xdpi="96"
       inkscape:export-ydpi="96" />
    <use
       x="0"
       y="0"
       xlink:href="#rect1"
       id="use26"
       transform="translate(270.93333,-135.46667)"
       inkscape:export-filename="ModifierGravityNormal.png"
       inkscape:export-xdpi="96"
       inkscape:export-ydpi="96" />
    <path
       style="fill:none;fill-opacity:0.25;stroke:#ffffff;stroke-width:16.9333;stroke-linecap:butt;stroke-dasharray:none;stroke-opacity:1"
       d="m 440.26664,101.59997 33.86667,-33.866657 33.86667,33.866657"
       id="path28"
       sodipodi:nodetypes="ccc" />
    <path
       style="fill:none;fill-opacity:0.25;stroke:#ffffff;stroke-width:16.9333;stroke-linecap:square;stroke-dasharray:none;stroke-opacity:1"
       d="m 440.26664,33.866649 h 67.73334"
       id="path28-2"
       sodipodi:nodetypes="cc" />
    <path
       style="fill:none;fill-opacity:0.25;stroke:#ffffff;stroke-width:16.9333;stroke-linecap:square;stroke-dasharray:none;stroke-opacity:1"
       d="m 440.26664,237.06663 h 67.73334"
       id="path28-2-0"
       sodipodi:nodetypes="cc" />
    <path
       style="fill:none;fill-opacity:0.25;stroke:#ffffff;stroke-width:16.9333;stroke-linecap:butt;stroke-dasharray:none;stroke-opacity:1"
       d="M 507.99998,169.3333 474.13331,203.19997 440.26664,169.3333"
       id="path28-7"
       sodipodi:nodetypes="ccc" />
    <rect
       style="fill:none;fill-opacity:1;stroke:#ffffff;stroke-width:16.9333;stroke-linecap:square;stroke-dasharray:none;stroke-opacity:1"
       id="rect31"
       width="50.799999"
       height="50.799995"
       x="177.79999"
       y="42.333317" />
    <rect
       style="fill:none;fill-opacity:1;stroke:#ffffff;stroke-width:16.9333;stroke-linecap:square;stroke-dasharray:none;stroke-opacity:1"
       id="rect32"
       width="33.866665"
       height="33.866665"
       x="50.799999"
       y="50.799995" />
    <rect
       style="fill:none;fill-opacity:1;stroke:#ffffff;stroke-width:16.9333;stroke-linecap:square;stroke-dasharray:none;stroke-opacity:1"
       id="rect33"
       width="67.73333"
       height="67.73333"
       x="304.79999"
       y="33.866665" />
    <ellipse
       style="fill:none;fill-opacity:1;stroke:#ffffff;stroke-width:16.9333;stroke-linecap:square;stroke-dasharray:none;stroke-opacity:1"
       id="path31"
       cx="203.19997"
       cy="203.19997"
       rx="25.4"
       ry="25.399998" />
    <circle
       style="fill:none;fill-opacity:1;stroke:#ffffff;stroke-width:16.9333;stroke-linecap:square;stroke-dasharray:none;stroke-opacity:1"
       id="path33"
       cx="67.733315"
       cy="203.2"
       r="16.933332" />
    <circle
       style="fill:none;fill-opacity:1;stroke:#ffffff;stroke-width:16.9333;stroke-linecap:square;stroke-dasharray:none;stroke-opacity:1"
       id="path34"
       cx="338.66666"
       cy="203.2"
       r="33.866665" />
    <use
       x="0"
       y="0"
       xlink:href="#rect1"
       id="use14"
       transform="translate(-135.46668,-2.75e-5)"
       inkscape:export-filename="ModifierSquareFlat.png"
       inkscape:export-xdpi="96"
       inkscape:export-ydpi="96" />
    <use
       x="0"
       y="0"
       xlink:href="#rect1"
       id="use22"
       transform="translate(135.46665,-2.75e-5)"
       inkscape:export-filename="ModifierSquareTall.png"
       inkscape:export-xdpi="96"
       inkscape:export-ydpi="96" />
    <rect
       style="fill:none;fill-opacity:1;stroke:#ffffff;stroke-width:16.9333;stroke-linecap:square;stroke-dasharray:none;stroke-opacity:1"
       id="rect34"
       width="67.73333"
       height="33.866665"
       x="33.86665"
       y="321.73331" />
    <rect
       style="fill:none;fill-opacity:1;stroke:#ffffff;stroke-width:16.9333;stroke-linecap:square;stroke-dasharray:none;stroke-opacity:1"
       id="rect35"
       width="35.983334"
       height="67.73333"
       x="321.73331"
       y="304.79996" />
    <rect
       style="fill:#e5e5e5;fill-opacity:1;stroke-width:0.0254;-inkscape-stroke:none"
       id="rect1-2"
       width="67.73333"
       height="67.73333"
       x="0"
       y="474.13333"
       inkscape:export-filename="PlayerSquare.png"
       inkscape:export-xdpi="96"
       inkscape:export-ydpi="96" />
    <path
       id="path1"
       style="fill:#808080;fill-opacity:1;stroke-width:0.0254;-inkscape-stroke:none"
       d="m 16.933333,474.13332 4.233333,4.23333 h 25.399999 l 4.233334,-4.23333 z M 0,491.06665 v 33.86667 l 4.2333332,-4.23334 v -25.39999 z m 67.733331,0 -4.233333,4.23334 v 25.39999 l 4.233333,4.23334 z m -46.566665,46.56667 -4.233333,4.23333 h 33.866666 l -4.233334,-4.23333 z" />
    <path
       id="rect3"
       style="fill:#808080;fill-opacity:1;stroke-width:0.0254;-inkscape-stroke:none"
       d="m 12.7,486.83332 v 42.33333 h 42.333332 v -42.33333 z m 4.233333,4.23333 h 33.866666 v 33.86667 H 16.933333 Z" />
    <circle
       style="fill:#ffffff;fill-opacity:1;stroke-width:0.0254;-inkscape-stroke:none"
       id="path4"
       cx="101.6"
       cy="508"
       r="33.866665"
       inkscape:export-filename="PlayerCircle.png"
       inkscape:export-xdpi="96"
       inkscape:export-ydpi="96" />
    <path
       id="path12"
       style="fill:#808080;fill-opacity:1;stroke-width:0.0254;-inkscape-stroke:none"
       d="m 101.6,474.13332 a 33.866665,33.866665 0 0 0 -16.933336,4.53719 l 6.378422,1.70894 a 29.633333,29.633331 0 0 1 10.554914,-2.0128 29.633333,29.633331 0 0 1 10.62209,1.99523 l 6.31124,-1.69137 A 33.866665,33.866665 0 0 0 101.6,474.13332 Z m -29.329478,16.93333 a 33.866665,33.866665 0 0 0 -4.537191,16.93334 33.866665,33.866665 0 0 0 4.537191,16.93333 l 1.70894,-6.37842 a 29.633331,29.633333 0 0 1 -2.012797,-10.55491 29.633331,29.633333 0 0 1 1.995227,-10.62209 z m 58.658948,0 -1.70894,6.37843 a 29.633331,29.633333 0 0 1 2.0128,10.55491 29.633331,29.633333 0 0 1 -1.99523,10.62209 l 1.69137,6.31124 a 33.866665,33.866665 0 0 0 4.53719,-16.93333 33.866665,33.866665 0 0 0 -4.53719,-16.93334 z m -18.77456,44.55387 A 29.633333,29.633331 0 0 1 101.6,537.63332 29.633333,29.633331 0 0 1 90.977907,535.63809 l -6.311243,1.69137 a 33.866665,33.866665 0 0 0 16.933336,4.53719 33.866665,33.866665 0 0 0 16.93333,-4.53719 z" />
    <path
       id="path15"
       style="fill:#808080;fill-opacity:1;stroke:none;stroke-width:0.0254;stroke-dasharray:none;stroke-opacity:1"
       d="M 101.6,486.83332 A 21.166666,21.166666 0 0 0 80.433331,507.99999 21.166666,21.166666 0 0 0 101.6,529.16665 21.166666,21.166666 0 0 0 122.76666,507.99999 21.166666,21.166666 0 0 0 101.6,486.83332 Z m 0,4.23333 A 16.933332,16.933332 0 0 1 118.53333,507.99999 16.933332,16.933332 0 0 1 101.6,524.93332 16.933332,16.933332 0 0 1 84.666664,507.99999 16.933332,16.933332 0 0 1 101.6,491.06665 Z" />
    <path
       id="path3"
       style="fill:#ffffff;fill-opacity:0.40000001;stroke:none;stroke-width:16.9333;stroke-linecap:square"
       d="M 440.26666 304.79999 A 33.866665 33.866665 0 0 0 406.39999 338.66666 A 33.866665 33.866665 0 0 0 440.26666 372.53333 A 33.866665 33.866665 0 0 0 474.13332 338.66666 A 33.866665 33.866665 0 0 0 440.26666 304.79999 z M 440.26666 313.26666 A 25.4 25.399998 0 0 1 465.66666 338.66666 A 25.4 25.399998 0 0 1 440.26666 364.06666 A 25.4 25.399998 0 0 1 414.86666 338.66666 A 25.4 25.399998 0 0 1 440.26666 313.26666 z "
       inkscape:export-filename="Start.png"
       inkscape:export-xdpi="96"
       inkscape:export-ydpi="96" />
    <circle
       style="fill:#ffffff;fill-opacity:1;stroke:none;stroke-width:16.9333;stroke-linecap:square"
       id="path5"
       cx="440.26666"
       cy="338.66666"
       r="16.933332" />
    <path
       style="fill:none;fill-opacity:0.4;stroke:#ffffff;stroke-width:16.9333;stroke-linecap:square;stroke-dasharray:none;stroke-opacity:1"
       d="m 491.06665,313.26665 25.40001,25.39999 -25.40001,25.4"
       id="path7"
       sodipodi:nodetypes="ccc"
       inkscape:export-filename="Goal.png"
       inkscape:export-xdpi="96"
       inkscape:export-ydpi="96" />
    <rect
       style="fill:#ffffff;fill-opacity:0.5;stroke:none;stroke-width:16.9333;stroke-linecap:square;stroke-dasharray:none;stroke-opacity:1"
       id="rect7"
       width="8.4666662"
       height="135.46666"
       x="533.39996"
       y="270.93329" />
    <rect
       style="fill:url(#linearGradient14);fill-opacity:1;stroke:none;stroke-width:16.9333;stroke-linecap:square;stroke-dasharray:none;stroke-opacity:1"
       id="rect8"
       width="59.266666"
       height="8.4666662"
       x="474.13333"
       y="270.93329" />
    <rect
       style="fill:url(#linearGradient15);fill-opacity:1;stroke:none;stroke-width:16.9333;stroke-linecap:square;stroke-dasharray:none;stroke-opacity:1"
       id="rect8-9"
       width="59.266666"
       height="8.4666662"
       x="474.13333"
       y="397.93335" />
    <path
       sodipodi:type="star"
       style="fill:none;stroke:#ffffff;stroke-width:8.46667;stroke-linecap:square;stroke-dasharray:none;stroke-opacity:1"
       id="path6"
       inkscape:flatsided="true"
       sodipodi:sides="6"
       sodipodi:cx="508"
       sodipodi:cy="507.99997"
       sodipodi:r1="27.516643"
       sodipodi:r2="25.663218"
       sodipodi:arg1="-3.1719076e-08"
       sodipodi:arg2="0.52359875"
       inkscape:rounded="0"
       inkscape:randomized="0"
       d="m 535.51664,507.99997 -13.75832,23.83011 -27.51664,0 -13.75832,-23.83011 13.75832,-23.83011 27.51664,0 z"
       inkscape:transform-center-x="-4.5374999e-06"
       inkscape:transform-center-y="4.5374999e-06"
       inkscape:export-filename="Burst.png"
       inkscape:export-xdpi="96"
       inkscape:export-ydpi="96" />
    <rect
       style="fill:#ffffff;stroke:none;stroke-width:8.46667;stroke-linecap:square;stroke-dasharray:none;stroke-opacity:1;fill-opacity:0"
       id="rect6"
       width="67.73333"
       height="67.73333"
       x="474.13333"
       y="474.1333" />
  </g>
</svg>
